<svg xmlns="http://www.w3.org/2000/svg" viewBox="0 0 400 400" fill="none">
  <rect width="400" height="400" fill="#f5f0eb"/>
  <!-- shadow -->
  <ellipse cx="210" cy="380" rx="50" ry="5" fill="#c0b8b0" opacity="0.6"/>
  <!-- bottle -->
  <rect x="152" y="370" width="96" height="6" rx="2" fill="#2a3525"/>
  <rect x="152" y="170" width="96" height="200" rx="3" fill="#3a4830"/>
  <!-- shoulder -->
  <path d="M152 170 Q152 130 180 115 L180 115 L220 115 Q248 130 248 170 Z" fill="#3a4830"/>
  <!-- neck -->
  <rect x="185" y="38" width="30" height="80" rx="4" fill="#3a4830"/>
  <!-- lip -->
  <rect x="182" y="30" width="36" height="12" rx="5" fill="#3a4830"/>
  <!-- capsule -->
  <rect x="180" y="28" width="40" height="40" rx="5" fill="#C8B880"/>
  <rect x="180" y="28" width="40" height="10" rx="5" fill="#D8C890"/>
  <line x1="180" y1="50" x2="220" y2="50" stroke="#B8A870" stroke-width="1"/>
  <line x1="180" y1="56" x2="220" y2="56" stroke="#B8A870" stroke-width="0.5"/>
  <line x1="180" y1="62" x2="220" y2="62" stroke="#B8A870" stroke-width="0.5"/>
  <!-- label -->
  <rect x="160" y="210" width="80" height="110" rx="1" fill="#E8DCC0" opacity="0.6"/>
  <rect x="170" y="230" width="60" height="4" rx="1" fill="#C8BC9A" opacity="0.5"/>
  <rect x="175" y="242" width="50" height="3" rx="1" fill="#C8BC9A" opacity="0.3"/>
  <rect x="180" y="270" width="40" height="20" rx="1" fill="#D0C4A8" opacity="0.3"/>
  <!-- highlight -->
  <rect x="152" y="170" width="18" height="200" rx="2" fill="white" opacity="0.1"/>
  <rect x="234" y="170" width="14" height="200" rx="2" fill="black" opacity="0.12"/>
  <path d="M152 170 Q152 135 175 118 L168 118 Q152 132 152 170 Z" fill="white" opacity="0.08"/>
  <rect x="185" y="38" width="8" height="80" rx="2" fill="white" opacity="0.07"/>
</svg>
